<svg width="15" height="13" viewBox="0 0 15 13" fill="none" xmlns="http://www.w3.org/2000/svg">
<path fill-rule="evenodd" clip-rule="evenodd" d="M5.41901 7.6339L7.48556 9.27865L9.47762 7.67895L13.943 12.807C13.8254 12.8512 13.6998 12.875 13.5691 12.875H1.39911C1.23846 12.875 1.08512 12.8384 0.944182 12.773L5.41901 7.6339ZM14.7864 3.4196V11.4581C14.7864 11.668 14.7469 11.8669 14.6768 12.0463L10.2999 7.01935L14.7864 3.4196ZM0.181824 3.46465L4.59386 6.97685L0.259229 11.9562C0.20789 11.7969 0.181669 11.6282 0.181824 11.4581V3.46465ZM13.5691 0.125C14.2409 0.125 14.7864 0.7591 14.7864 1.54195V2.04005L7.48264 7.9008L0.181824 2.0885V1.54195C0.181824 0.75995 0.726574 0.125 1.39911 0.125H13.5691Z" fill="#E8CFAA"/>
</svg>
