<svg width="17" height="14" viewBox="0 0 17 14" fill="none" xmlns="http://www.w3.org/2000/svg">
<path d="M14.6967 8.97138C14.6147 8.38775 14.1749 7.93275 13.6087 7.79713C11.4079 7.26863 10.8562 5.97013 10.7631 4.52987C10.3729 4.4555 9.67854 4.375 8.50001 4.375C7.32147 4.375 6.62716 4.4555 6.23687 4.52987C6.14379 5.97013 5.5921 7.26863 3.39131 7.79713C2.8251 7.93363 2.38528 8.38775 2.3033 8.97138L1.87885 11.9831C1.7294 13.0436 2.48947 14 3.54674 14H13.4533C14.5097 14 15.2706 13.0436 15.1212 11.9831L14.6967 8.97138ZM8.50001 11.8055C7.30866 11.8055 6.34277 10.8255 6.34277 9.618C6.34277 8.4105 7.30866 7.4305 8.50001 7.4305C9.69135 7.4305 10.6572 8.4105 10.6572 9.618C10.6572 10.8255 9.6905 11.8055 8.50001 11.8055ZM16.9974 3.5C16.9769 2.1875 13.7163 0.000875 8.50001 0C3.28285 0.000875 0.0222313 2.1875 0.00258901 3.5C-0.0170533 4.8125 0.0205233 6.5205 2.16751 6.23612C4.67916 5.90275 4.52458 5.00413 4.52458 3.71962C4.52458 2.82362 6.56738 2.6075 8.50001 2.6075C10.4326 2.6075 12.4746 2.82362 12.4754 3.71962C12.4754 5.00413 12.3209 5.90275 14.8325 6.23612C16.9786 6.5205 17.0171 4.8125 16.9974 3.5Z" fill="#E8CFAA"/>
</svg>
