<svg width="191" height="72" viewBox="0 0 191 72" fill="none" xmlns="http://www.w3.org/2000/svg">
<g clip-path="url(#clip0_146_3056)">
<path d="M118.368 23.7466L117.299 24.0986C116.256 21.6857 114.281 19.0738 111.574 19.0738C107.963 19.0738 107.154 23.9252 107.154 26.8636C107.154 32.9443 110.004 35.4593 112.664 35.4593C115.017 35.4593 116.511 33.7248 117.749 31.8679L118.368 32.3475C116.752 35.3879 114.521 37.3978 111.073 37.3978C106.346 37.3978 103.021 33.2249 103.021 28.3991C103.021 23.1702 106.325 18.0944 111.242 18.0944C112.096 18.0944 112.787 18.2933 113.38 18.4974C113.974 18.6963 114.475 18.9004 114.951 18.9004C115.57 18.9004 116.138 18.5994 116.685 18.3239L116.946 18.1964L118.374 23.7518L118.368 23.7466Z" fill="white"/>
<path d="M122.712 32.7913C123.899 32.7913 124.876 33.8218 124.876 35.1022C124.876 36.3826 123.904 37.3876 122.712 37.3876C121.52 37.3876 120.527 36.3571 120.527 35.1022C120.527 33.8473 121.499 32.7913 122.712 32.7913Z" fill="white"/>
<path d="M127.199 36.1122C128.907 36.1122 129.501 35.5613 129.501 33.8013V21.6857C129.501 19.9258 128.907 19.3748 127.199 19.3748V18.5433H135.466C136.939 18.5433 138.27 18.7168 139.503 19.2218C142.567 20.5022 144.803 23.4967 144.803 27.9399C144.803 32.0363 142.501 35.1022 139.625 36.2857C138.367 36.8111 136.985 36.9387 135.466 36.9387H127.199V36.1071V36.1122ZM133.399 33.5208C133.399 35.4083 133.399 35.9592 135.492 35.9592C138.464 35.9592 140.669 34.1993 140.669 27.287C140.669 21.1042 138.459 19.5228 135.231 19.5228C133.399 19.5228 133.399 20.2778 133.399 21.8592V33.5208Z" fill="white"/>
<path d="M149.576 32.7913C150.763 32.7913 151.74 33.8218 151.74 35.1022C151.74 36.3826 150.768 37.3876 149.576 37.3876C148.384 37.3876 147.391 36.3571 147.391 35.1022C147.391 33.8473 148.363 32.7913 149.576 32.7913Z" fill="white"/>
<path d="M160.238 28.496V33.8013C160.238 35.5613 160.831 36.1122 162.54 36.1122V36.9438H154.037V36.1122C155.746 36.1122 156.339 35.5613 156.339 33.8013V21.6857C156.339 19.9258 155.746 19.3748 154.037 19.3748V18.5433H162.591C167.912 18.5433 169.932 20.9052 169.932 23.3947C169.932 28.0165 165.681 28.496 162.284 28.496H160.243H160.238ZM160.238 27.5165H161.639C164.469 27.5165 165.799 26.4095 165.799 23.4457C165.799 20.7063 164.397 19.5228 162.166 19.5228C160.243 19.5228 160.243 20.2778 160.243 22.0122V27.5165H160.238Z" fill="white"/>
<path d="M170.761 32.7913C171.948 32.7913 172.925 33.8218 172.925 35.1022C172.925 36.3826 171.953 37.3876 170.761 37.3876C169.569 37.3876 168.577 36.3571 168.577 35.1022C168.577 33.8473 169.549 32.7913 170.761 32.7913Z" fill="white"/>
<path d="M175.227 36.1122C176.936 36.1122 177.53 35.5613 177.53 33.8013V21.6857C177.53 19.9258 176.936 19.3748 175.227 19.3748V18.5433H183.73V19.3748C182.021 19.3748 181.428 19.9258 181.428 21.6857V33.8013C181.428 35.3113 181.454 35.9643 183.208 35.9643C186.13 35.9643 188.601 33.9289 190.407 31.6945L191 31.9445L189.527 36.9438H175.222V36.1122H175.227Z" fill="white"/>
<path d="M17.7524 49.7685C12.9383 36.8825 5.41781 24.8587 0.905518 11.7433C6.22102 9.26401 28.0407 2.67311 31.494 5.38701L30.8186 3.83621C31.4223 3.36689 41.4701 35.4593 43.2965 41.1166" fill="#B8B3CE"/>
<path d="M18.3153 49.0951C13.849 35.8521 6.48711 23.8436 1.78552 10.6771C1.24323 11.4219 0.700934 12.1615 0.163756 12.9063C4.87557 10.7944 9.95063 9.38643 14.9336 8.0805C18.8729 7.05003 26.7822 4.2086 30.6448 6.5603C31.1052 6.84088 32.553 4.68302 32.3484 4.2188C32.1233 3.69846 31.8982 3.18323 31.6731 2.6629C31.1052 3.4434 30.5322 4.229 29.9643 5.0095C30.8289 5.25947 31.7498 9.41704 32.0056 10.1567C33.2846 13.8501 34.4869 17.5689 35.684 21.2878C37.9248 28.2613 40.0019 35.2909 42.3859 42.2185C42.4883 42.5195 44.4119 40.6677 44.2123 40.0096C42.1097 32.9902 39.8075 26.032 37.5206 19.0687C36.2212 15.0999 34.9115 11.1311 33.5353 7.19287C33.3153 6.56541 32.4967 2.89756 31.6782 2.6629C31.1001 2.49965 29.7444 4.50447 29.9695 5.0095C30.1946 5.52474 30.4248 6.03997 30.6499 6.5552C31.2178 5.7747 31.7856 4.9942 32.3535 4.2137C28.8439 2.10175 22.4387 4.33613 18.8678 5.16254C13.0663 6.49909 7.10103 8.14681 1.65251 10.575C1.16137 10.7944 -0.18413 12.1973 0.0307409 12.8043C4.65559 25.8331 11.7054 37.8467 17.2255 50.5031C17.2409 50.5388 18.4585 49.4981 18.3204 49.09" fill="#3E3167"/>
<path d="M37.229 44.8865C38.1345 45.0191 38.641 44.6212 39.4852 45.213C31.9084 46.9474 24.127 46.774 16.6321 49.6971" fill="#ADA3BA"/>
<path d="M36.702 45.6058C37.4592 45.5548 38.1447 45.7588 38.7484 46.2179C39.214 45.5446 39.6795 44.8712 40.14 44.1978C32.6144 45.4221 24.3828 45.4884 17.3329 48.6053C16.7651 48.8553 15.8544 50.7938 15.9209 50.7734C23.4875 48.7584 31.2689 48.1615 38.8252 46.2179C39.2549 46.1057 40.3242 44.2131 40.2167 44.1978C38.6103 43.9835 39.2958 43.9938 37.6894 44.1621C37.316 44.2029 36.6816 45.6007 36.6969 45.6007" fill="#3E3167"/>
<path d="M28.3425 51.9212C28.8593 35.2807 26.4241 18.023 27.3194 1.30084C33.4278 1.65283 57.0841 6.948 59.3198 11.8402L59.2891 9.77923C60.0616 9.61599 56.9051 49.9674 56.3935 57.1042" fill="#867EA6"/>
<path d="M28.9667 51.156C29.821 34.1278 27.5342 17.1353 28.3016 0.0969313C27.657 0.928446 27.0175 1.76506 26.3729 2.59658C32.2665 3.03019 38.1652 4.56569 43.8337 6.1522C48.1107 7.35101 55.9125 8.92731 58.3631 13.1512C58.4961 13.3859 60.3225 11.1158 60.3174 10.6158C60.3072 9.92717 60.2969 9.23849 60.2867 8.55492C59.6318 9.40174 58.9821 10.2486 58.3273 11.0954C59.0793 11.6871 58.271 16.5028 58.2301 17.3292C57.9845 22.206 57.6417 27.0829 57.299 31.9547C56.6748 40.7544 55.8921 49.544 55.3753 58.3489C55.3753 58.2877 57.3399 56.7471 57.4115 55.8492C58.1584 47.0546 58.7519 38.2497 59.3402 29.4448C59.6677 24.5884 59.9848 19.7268 60.2304 14.8652C60.2765 13.9419 61.1155 9.14157 60.2458 8.45289C59.8314 8.12641 58.2812 10.5648 58.2863 10.9933C58.2966 11.6769 58.3068 12.3656 58.317 13.0492C58.9668 12.2075 59.6216 11.3606 60.2713 10.5138C57.7901 6.26953 49.9985 4.80545 45.7061 3.56583C40.0786 1.94871 34.1389 0.443821 28.2709 6.27548e-06C27.5598 -0.0561082 26.3729 1.87729 26.3422 2.49965C25.5697 19.2371 27.6416 35.949 27.7184 52.6864C27.7184 52.6915 28.9411 51.6815 28.9667 51.156Z" fill="#34265D"/>
<path d="M54.6591 54.579C55.5953 55.2065 56.3627 55.0432 57.0022 56.1451C47.6963 53.9923 39.127 49.6205 29.2992 48.8247" fill="#8D809F"/>
<path d="M54.0196 55.4615C54.9353 55.8595 55.6311 56.5022 56.1018 57.3847C56.7004 56.5583 57.3041 55.737 57.9026 54.9106C49.1031 52.1202 39.526 47.4066 30.1638 47.4984C29.5345 47.5035 28.189 50.1205 28.3323 50.1562C32.686 51.2019 37.0448 51.8957 41.3524 53.1813C46.2638 54.6453 51.0421 56.4614 56.1018 57.3847C56.6339 57.4817 58.2249 55.1096 57.9026 54.9106C57.1301 54.2984 56.2655 53.8954 55.2986 53.7016C54.9302 53.5792 53.7996 55.3289 54.0145 55.4667" fill="#34265D"/>
<path d="M53.6001 9.62109L31.5298 48.5493L33.8729 48.0697L59.0077 11.9932L53.6001 9.62109Z" fill="#605585"/>
<path d="M26.2859 5.35638L20.7504 6.23381L27.7797 48.2993L26.2859 5.35638Z" fill="#504477"/>
<path d="M92.6709 16.9568H91.6426V54.4821H92.6709V16.9568Z" fill="white"/>
<path d="M32.2102 47.8555C42.831 35.3011 51.4463 20.3032 62.4303 7.93765C67.1626 12.2891 83.0631 32.1995 81.8813 37.4947L83.1142 35.8725C83.8407 36.2653 56.5367 65.4346 51.7533 70.6227" fill="#564B7C"/>
<path d="M32.2461 48.2279C43.0664 35.5511 51.5128 21.0787 62.4815 8.51921C62.1387 8.76918 61.8011 9.01914 61.4634 9.264C65.5102 13.0951 68.9583 17.6302 72.2633 22.0938C75.1845 26.0371 81.5283 33.2147 80.8632 38.5354C80.7456 39.4638 82.0808 37.8926 82.1985 37.7345C82.6129 37.1937 83.0222 36.653 83.4366 36.1122L82.0757 37.107C81.9222 36.4795 82.9045 35.6939 82.0757 36.7244C81.7176 37.1682 81.3441 37.6018 80.9758 38.0354C79.9423 39.2495 78.8782 40.4382 77.8192 41.6319C74.4887 45.366 71.0968 49.0492 67.7049 52.7272C62.4713 58.405 57.1711 64.0164 51.9682 69.7248C51.4821 70.2605 50.065 73.107 51.5384 71.5307C58.4143 64.1746 65.2492 56.7828 72.0382 49.3451C75.0924 45.9986 78.1415 42.647 81.0934 39.2138C81.779 38.418 84.4598 35.9133 84.1477 34.638C84.0147 34.0972 82.8738 35.5205 82.7868 35.6327C82.3776 36.1735 81.9632 36.7142 81.5539 37.2549C81.999 36.9897 82.4441 36.7193 82.8892 36.454C83.4673 31.72 78.9192 26.231 76.4533 22.6346C72.6111 17.0231 68.3393 11.3198 63.3973 6.61132C63.1619 6.38686 62.4713 7.24898 62.3792 7.35611C51.3338 19.987 42.7747 34.5002 32.1847 47.4882C31.7089 48.0697 31.3098 49.3298 32.2563 48.2228" fill="#1E0F49"/>
<path d="M54.0299 68.0822C54.6643 69.0769 55.4521 69.2708 55.6056 70.5614C47.7219 64.4296 41.419 56.5991 32.507 51.4723" fill="#564B7C"/>
<path d="M53.3751 68.98C54.0657 69.7605 54.4903 70.6788 54.6541 71.7347C55.2782 70.9236 55.9024 70.1176 56.5265 69.3065C52.8686 65.9141 49.18 62.5524 45.5425 59.1345C42.0278 55.8339 38.0732 51.8396 33.4944 50.1205C32.9828 49.9317 31.1615 52.5028 31.5247 52.8242C35.2594 56.1349 39.5875 58.7978 43.3477 62.1494C47.0568 65.455 50.5664 69.0259 54.695 71.8215C55.0736 72.0765 56.7567 69.7656 56.5316 69.2963C56.0507 68.3016 55.4419 67.9853 54.6899 67.1793C54.562 67.0415 53.1244 68.6178 53.3802 68.9749" fill="#1E0F49"/>
<path d="M107.287 45.0344C107.267 45.1161 107.251 45.1926 107.241 45.2742C106.939 45.4272 106.556 45.5038 106.095 45.5038C105.768 45.5038 105.476 45.4579 105.22 45.366C104.965 45.2742 104.745 45.1467 104.565 44.9783C104.386 44.81 104.253 44.6161 104.156 44.3866C104.064 44.157 104.013 43.9122 104.013 43.6469C104.013 43.2592 104.074 42.9276 104.197 42.6572C104.32 42.3869 104.484 42.1675 104.688 41.9941C104.893 41.8257 105.128 41.6982 105.399 41.6217C105.671 41.5451 105.952 41.5043 106.249 41.5043C106.346 41.5043 106.448 41.5145 106.561 41.5247C106.668 41.54 106.776 41.5604 106.878 41.586C106.98 41.6115 107.077 41.637 107.169 41.6727C107.262 41.7084 107.338 41.7441 107.405 41.7798C107.369 41.8716 107.338 41.9686 107.318 42.0655C107.297 42.1624 107.282 42.2593 107.277 42.3563H107.2C107.057 42.1777 106.914 42.0502 106.76 41.9737C106.612 41.8971 106.433 41.8563 106.233 41.8563C106.085 41.8563 105.931 41.892 105.778 41.9584C105.624 42.0247 105.486 42.1267 105.364 42.2644C105.241 42.4022 105.138 42.5807 105.062 42.795C104.985 43.0092 104.949 43.2694 104.949 43.5653C104.949 43.8611 104.99 44.1009 105.067 44.305C105.144 44.509 105.246 44.6774 105.374 44.8049C105.502 44.9324 105.64 45.0293 105.804 45.0906C105.962 45.1518 106.121 45.1824 106.284 45.1824C106.377 45.1824 106.469 45.1722 106.561 45.1518C106.653 45.1314 106.745 45.1008 106.837 45.0651C106.929 45.0293 107.011 44.9834 107.093 44.9324C107.175 44.8814 107.246 44.8202 107.303 44.759L107.374 44.8049C107.343 44.8814 107.318 44.963 107.297 45.0446L107.287 45.0344Z" fill="white"/>
<path d="M109.958 44.0907C109.958 44.2386 109.973 44.3815 110.004 44.509C110.034 44.6416 110.08 44.7539 110.142 44.8508C110.203 44.9477 110.28 45.0191 110.377 45.0752C110.474 45.1314 110.587 45.1569 110.71 45.1569C110.971 45.1569 111.201 45.0701 111.4 44.9018L111.467 44.9528L111.344 45.2691C111.252 45.3405 111.139 45.3966 111.006 45.4425C110.873 45.4834 110.705 45.5089 110.49 45.5089C110.306 45.5089 110.132 45.4834 109.968 45.4323C109.804 45.3813 109.656 45.2997 109.533 45.1824C109.405 45.065 109.308 44.9171 109.236 44.7437C109.165 44.5651 109.129 44.356 109.129 44.106C109.129 43.856 109.16 43.652 109.226 43.4734C109.293 43.2949 109.385 43.1418 109.497 43.0245C109.615 42.9072 109.753 42.8154 109.912 42.7541C110.07 42.6929 110.244 42.6623 110.433 42.6623C110.807 42.6623 111.088 42.7695 111.288 42.9888C111.487 43.2082 111.585 43.5142 111.585 43.907V44.0244C111.585 44.0601 111.585 44.0805 111.579 44.0907H109.963H109.958ZM110.822 43.8356C110.817 43.5551 110.781 43.3306 110.72 43.1623C110.659 42.9939 110.556 42.9072 110.408 42.9072C110.326 42.9072 110.254 42.9378 110.198 42.9939C110.142 43.05 110.096 43.1214 110.065 43.2082C110.029 43.2949 110.004 43.3969 109.988 43.504C109.973 43.6112 109.963 43.7234 109.958 43.8305H110.822V43.8356Z" fill="white"/>
<path d="M114.209 43.1521C114.317 42.9939 114.439 42.8715 114.577 42.7848C114.721 42.698 114.879 42.6572 115.058 42.6572C115.34 42.6572 115.555 42.7388 115.708 42.9021C115.862 43.0653 115.938 43.3255 115.938 43.6928C115.938 43.8815 115.938 44.0499 115.928 44.1978C115.918 44.3458 115.918 44.4886 115.918 44.6365C115.918 44.7539 115.918 44.8865 115.928 45.0242C115.933 45.162 115.938 45.2997 115.949 45.4323C115.897 45.4272 115.836 45.4221 115.764 45.4221H115.294C115.217 45.4221 115.156 45.4221 115.11 45.4323C115.135 45.2385 115.15 45.0089 115.161 44.7437C115.166 44.4784 115.171 44.1774 115.171 43.8356C115.171 43.601 115.13 43.4275 115.048 43.3153C114.966 43.2031 114.854 43.1521 114.705 43.1521C114.537 43.1521 114.414 43.2235 114.332 43.3714C114.255 43.5193 114.214 43.7183 114.214 43.9785V44.2029C114.214 44.4325 114.214 44.6467 114.224 44.8508C114.23 45.0548 114.245 45.2487 114.26 45.4323C114.209 45.4272 114.153 45.4221 114.076 45.4221H113.6C113.529 45.4221 113.467 45.4221 113.416 45.4323C113.437 45.2436 113.447 45.0497 113.452 44.8508C113.457 44.6518 113.462 44.4325 113.462 44.2029V43.9785C113.462 43.7489 113.462 43.5347 113.452 43.3357C113.442 43.1367 113.431 42.9327 113.416 42.7337C113.483 42.7388 113.549 42.749 113.616 42.7541C113.682 42.7593 113.749 42.7644 113.815 42.7644C113.882 42.7644 113.948 42.7644 114.015 42.7541C114.081 42.749 114.153 42.7439 114.224 42.7337L114.204 43.1572H114.214L114.209 43.1521Z" fill="white"/>
<path d="M119.366 42.9072C119.366 42.9582 119.371 43.0041 119.381 43.0449L118.885 43.0347C118.88 43.1214 118.87 43.2184 118.865 43.3306C118.86 43.4428 118.854 43.5551 118.854 43.6724C118.854 43.7897 118.854 43.9019 118.849 44.0091C118.849 44.1162 118.849 44.208 118.849 44.2845C118.849 44.4784 118.849 44.6365 118.865 44.7539C118.875 44.8712 118.89 44.963 118.911 45.0293C118.931 45.0906 118.967 45.1365 119.008 45.1569C119.049 45.1773 119.1 45.1926 119.167 45.1926C119.238 45.1926 119.289 45.1926 119.325 45.1773C119.361 45.1671 119.392 45.1518 119.427 45.1365V45.366C119.351 45.4017 119.259 45.4272 119.146 45.4579C119.033 45.4885 118.921 45.4987 118.814 45.4987C118.338 45.4987 118.097 45.213 118.097 44.6467C118.097 44.5396 118.097 44.4172 118.102 44.2794C118.102 44.1417 118.113 44.004 118.118 43.856C118.123 43.7132 118.128 43.5704 118.133 43.4275C118.133 43.2898 118.138 43.1572 118.138 43.0398H117.744C117.754 42.999 117.76 42.9531 117.76 42.9072C117.76 42.8613 117.754 42.8103 117.744 42.7542L118.138 42.7695C118.138 42.6521 118.138 42.545 118.133 42.443C118.133 42.3409 118.123 42.2185 118.118 42.0757C118.251 42.0247 118.379 41.9686 118.507 41.9124C118.634 41.8563 118.762 41.7951 118.89 41.7288L118.947 41.7696C118.936 41.8308 118.931 41.8971 118.926 41.9788C118.921 42.0604 118.916 42.142 118.911 42.2338C118.906 42.3205 118.9 42.4124 118.9 42.5042C118.9 42.596 118.9 42.6827 118.9 42.7644L119.397 42.7542C119.386 42.8103 119.381 42.8613 119.381 42.9072H119.366Z" fill="white"/>
<path d="M121.95 43.4275C122.047 43.1674 122.164 42.9786 122.303 42.8562C122.441 42.7338 122.604 42.6725 122.799 42.6725C122.819 42.6725 122.835 42.6725 122.845 42.6725C122.86 42.6725 122.87 42.6725 122.886 42.6725C122.876 42.7287 122.865 42.7899 122.86 42.8511C122.855 42.9123 122.85 42.9888 122.85 43.0756V43.351C122.85 43.3867 122.85 43.4173 122.855 43.4479L122.804 43.4939C122.768 43.4735 122.722 43.453 122.676 43.4377C122.63 43.4224 122.574 43.4173 122.517 43.4173C122.349 43.4173 122.216 43.4735 122.118 43.5806C122.021 43.6877 121.97 43.8203 121.97 43.9683V44.1927C121.97 44.4223 121.97 44.6366 121.98 44.8406C121.991 45.0447 122.001 45.2385 122.016 45.4222C121.97 45.4171 121.909 45.412 121.832 45.412H121.356C121.285 45.412 121.223 45.412 121.172 45.4222C121.192 45.2334 121.203 45.0396 121.208 44.8406C121.213 44.6417 121.218 44.4223 121.218 44.1927V43.9683C121.218 43.7387 121.218 43.5245 121.208 43.3255C121.198 43.1266 121.187 42.9225 121.172 42.7236C121.233 42.7287 121.3 42.7389 121.366 42.744C121.433 42.7491 121.494 42.7542 121.561 42.7542C121.627 42.7542 121.689 42.7542 121.755 42.744C121.822 42.7389 121.883 42.7338 121.95 42.7236L121.934 43.4071L121.945 43.4173L121.95 43.4275Z" fill="white"/>
<path d="M124.651 43.05C124.809 42.9225 124.978 42.8256 125.162 42.7593C125.347 42.6929 125.526 42.6572 125.705 42.6572C125.853 42.6572 125.991 42.6725 126.119 42.7082C126.247 42.7439 126.354 42.795 126.447 42.8664C126.539 42.9378 126.61 43.0347 126.661 43.1521C126.713 43.2694 126.738 43.4071 126.738 43.5704C126.738 43.8101 126.738 44.0295 126.728 44.2335C126.718 44.4376 126.718 44.6416 126.718 44.8406C126.718 44.9324 126.723 44.9987 126.738 45.0497C126.754 45.1008 126.769 45.1365 126.8 45.1671C126.825 45.1926 126.861 45.2079 126.902 45.2181C126.943 45.2232 126.994 45.2283 127.05 45.2283V45.3609C126.943 45.4068 126.851 45.4374 126.774 45.463C126.697 45.4885 126.62 45.4987 126.534 45.4987C126.395 45.4987 126.283 45.4629 126.196 45.3966C126.109 45.3303 126.042 45.2334 125.996 45.1059C125.909 45.2232 125.812 45.3201 125.695 45.3915C125.577 45.463 125.439 45.4987 125.265 45.4987C125.122 45.4987 124.999 45.4783 124.902 45.4425C124.804 45.4068 124.717 45.3507 124.651 45.2844C124.584 45.213 124.538 45.1365 124.508 45.0497C124.477 44.963 124.462 44.8712 124.462 44.7845C124.462 44.662 124.482 44.5549 124.523 44.4631C124.564 44.3713 124.62 44.2947 124.692 44.2335C124.763 44.1723 124.85 44.1162 124.953 44.0754C125.055 44.0346 125.168 43.9938 125.295 43.9683C125.454 43.9326 125.577 43.8968 125.669 43.8713C125.761 43.8458 125.828 43.8152 125.874 43.7846C125.92 43.754 125.945 43.7234 125.961 43.6928C125.976 43.6571 125.981 43.6163 125.981 43.5704C125.981 43.4377 125.935 43.3204 125.838 43.2235C125.741 43.1265 125.608 43.0806 125.439 43.0806C125.377 43.0806 125.311 43.0908 125.244 43.1061C125.178 43.1214 125.111 43.147 125.05 43.1776C124.988 43.2082 124.932 43.2388 124.881 43.2745C124.83 43.3102 124.794 43.351 124.763 43.3918H124.722L124.651 43.0551V43.05ZM125.986 44.5753C125.986 44.4121 125.986 44.2896 125.986 44.208C125.986 44.1213 125.986 44.0499 125.986 43.9887C125.909 44.0346 125.822 44.0703 125.735 44.0958C125.648 44.1213 125.567 44.157 125.495 44.2029C125.423 44.2437 125.362 44.305 125.316 44.3815C125.27 44.458 125.244 44.5651 125.244 44.708C125.244 44.8508 125.275 44.9528 125.331 45.0242C125.388 45.0957 125.469 45.1314 125.567 45.1314C125.689 45.1314 125.792 45.0855 125.868 44.9936C125.945 44.9018 125.986 44.7641 125.986 44.5804V44.5753Z" fill="white"/>
<path d="M128.892 42.1318C128.887 41.8257 128.871 41.5145 128.856 41.1982C128.902 41.2033 128.969 41.2135 129.04 41.2186C129.117 41.2237 129.194 41.2288 129.276 41.2288C129.357 41.2288 129.434 41.2289 129.511 41.2186C129.588 41.2135 129.649 41.2084 129.695 41.1982C129.68 41.5145 129.67 41.8206 129.659 42.1318C129.654 42.4379 129.649 42.7745 129.649 43.1418V43.504C129.649 43.8713 129.649 44.208 129.659 44.5141C129.664 44.8202 129.68 45.1263 129.695 45.4272C129.649 45.4221 129.583 45.417 129.511 45.417H129.04C128.964 45.417 128.902 45.417 128.856 45.4272C128.871 45.1263 128.882 44.8202 128.892 44.5141C128.897 44.208 128.902 43.8713 128.902 43.504V43.1418C128.902 42.7745 128.902 42.4379 128.892 42.1318Z" fill="white"/>
<path d="M132.442 44.0907C132.442 44.2386 132.458 44.3815 132.488 44.509C132.519 44.6416 132.565 44.7539 132.627 44.8508C132.688 44.9477 132.765 45.0191 132.862 45.0752C132.959 45.1314 133.072 45.1569 133.194 45.1569C133.455 45.1569 133.686 45.0701 133.885 44.9018L133.952 44.9528L133.829 45.2691C133.737 45.3405 133.624 45.3966 133.491 45.4425C133.358 45.4834 133.189 45.5089 132.975 45.5089C132.79 45.5089 132.616 45.4834 132.453 45.4323C132.289 45.3813 132.141 45.2997 132.018 45.1824C131.89 45.065 131.793 44.9171 131.721 44.7437C131.649 44.5651 131.614 44.356 131.614 44.106C131.614 43.856 131.644 43.652 131.711 43.4734C131.777 43.2949 131.869 43.1418 131.982 43.0245C132.1 42.9072 132.238 42.8154 132.396 42.7541C132.555 42.6929 132.729 42.6623 132.918 42.6623C133.292 42.6623 133.573 42.7695 133.773 42.9888C133.972 43.2082 134.069 43.5142 134.069 43.907V44.0244C134.069 44.0601 134.069 44.0805 134.064 44.0907H132.448H132.442ZM133.312 43.8356C133.307 43.5551 133.271 43.3306 133.21 43.1623C133.148 42.9939 133.046 42.9072 132.898 42.9072C132.816 42.9072 132.744 42.9378 132.688 42.9939C132.632 43.05 132.586 43.1214 132.555 43.2082C132.519 43.2949 132.494 43.3969 132.478 43.504C132.463 43.6112 132.453 43.7234 132.448 43.8305H133.312V43.8356Z" fill="white"/>
<path d="M144.24 43.504C144.24 43.8713 144.24 44.208 144.25 44.5141C144.255 44.8202 144.271 45.1263 144.286 45.4272C144.235 45.4221 144.173 45.417 144.102 45.417H143.646C143.575 45.417 143.524 45.417 143.488 45.4272C143.488 45.4221 143.493 45.3966 143.498 45.3558C143.498 45.315 143.508 45.2691 143.513 45.2181C143.519 45.1671 143.524 45.1161 143.529 45.0701C143.529 45.0242 143.534 44.9987 143.534 44.9834L143.524 44.9732C143.452 45.1416 143.355 45.2691 143.232 45.3609C143.109 45.4527 142.935 45.4987 142.72 45.4987C142.531 45.4987 142.367 45.4629 142.229 45.3915C142.096 45.3201 141.984 45.2181 141.897 45.0854C141.81 44.9528 141.748 44.7998 141.708 44.6263C141.667 44.4529 141.646 44.259 141.646 44.0601C141.646 43.8611 141.672 43.6724 141.733 43.504C141.789 43.3357 141.866 43.1878 141.963 43.0602C142.061 42.9327 142.178 42.8358 142.311 42.7643C142.444 42.6929 142.587 42.6572 142.736 42.6572C142.905 42.6572 143.053 42.698 143.186 42.7745C143.319 42.8511 143.416 42.9531 143.483 43.0704H143.493C143.493 42.7337 143.493 42.4175 143.483 42.1216C143.473 41.8257 143.462 41.5145 143.447 41.1982C143.498 41.2033 143.559 41.2135 143.631 41.2186C143.708 41.2237 143.785 41.2288 143.866 41.2288C143.948 41.2288 144.03 41.2289 144.102 41.2186C144.179 41.2135 144.24 41.2084 144.286 41.1982C144.271 41.5145 144.26 41.8206 144.25 42.1318C144.245 42.4379 144.24 42.7745 144.24 43.1418V43.504ZM142.47 44.1417C142.47 44.3304 142.485 44.4937 142.511 44.6263C142.536 44.759 142.572 44.861 142.618 44.9426C142.664 45.0242 142.715 45.0803 142.772 45.1161C142.828 45.1518 142.889 45.1671 142.956 45.1671C143.109 45.1671 143.237 45.0803 143.334 44.9069C143.432 44.7335 143.483 44.4427 143.483 44.0397C143.483 43.6928 143.437 43.4377 143.345 43.2796C143.253 43.1214 143.13 43.0398 142.987 43.0398C142.925 43.0398 142.864 43.0551 142.807 43.0908C142.746 43.1265 142.695 43.1827 142.644 43.2694C142.593 43.3561 142.557 43.4683 142.521 43.6112C142.49 43.754 142.475 43.9325 142.475 44.1417H142.47Z" fill="white"/>
<path d="M146.962 44.0907C146.962 44.2386 146.977 44.3815 147.008 44.509C147.038 44.6416 147.084 44.7539 147.146 44.8508C147.207 44.9477 147.284 45.0191 147.381 45.0752C147.478 45.1314 147.591 45.1569 147.714 45.1569C147.975 45.1569 148.205 45.0701 148.404 44.9018L148.471 44.9528L148.348 45.2691C148.256 45.3405 148.143 45.3966 148.01 45.4425C147.877 45.4834 147.709 45.5089 147.494 45.5089C147.309 45.5089 147.136 45.4834 146.972 45.4323C146.808 45.3813 146.66 45.2997 146.537 45.1824C146.409 45.065 146.312 44.9171 146.24 44.7437C146.169 44.5651 146.133 44.356 146.133 44.106C146.133 43.856 146.163 43.652 146.23 43.4734C146.297 43.2949 146.389 43.1418 146.501 43.0245C146.619 42.9072 146.757 42.8154 146.916 42.7541C147.074 42.6929 147.248 42.6623 147.437 42.6623C147.811 42.6623 148.092 42.7695 148.292 42.9888C148.491 43.2082 148.588 43.5142 148.588 43.907V44.0244C148.588 44.0601 148.588 44.0805 148.583 44.0907H146.967H146.962ZM147.831 43.8356C147.826 43.5551 147.79 43.3306 147.729 43.1623C147.668 42.9939 147.565 42.9072 147.417 42.9072C147.335 42.9072 147.263 42.9378 147.207 42.9939C147.151 43.05 147.105 43.1214 147.074 43.2082C147.038 43.2949 147.013 43.3969 146.997 43.504C146.982 43.6112 146.972 43.7234 146.967 43.8305H147.831V43.8356Z" fill="white"/>
<path d="M156.472 43.1265C156.472 42.8154 156.472 42.5399 156.462 42.3001C156.457 42.0604 156.441 41.8155 156.426 41.5757C156.488 41.5859 156.559 41.591 156.636 41.5962C156.713 41.6013 156.794 41.6064 156.892 41.6064C157.014 41.6064 157.153 41.6064 157.306 41.591C157.46 41.5808 157.659 41.5757 157.91 41.5757C158.232 41.5757 158.524 41.6064 158.79 41.6625C159.056 41.7186 159.281 41.8206 159.475 41.9583C159.665 42.0961 159.813 42.2848 159.92 42.5144C160.028 42.7439 160.079 43.0449 160.079 43.3969C160.079 43.7081 160.028 43.9887 159.925 44.2386C159.823 44.4886 159.68 44.7029 159.501 44.8814C159.322 45.0599 159.117 45.1926 158.882 45.2895C158.646 45.3813 158.396 45.4272 158.13 45.4272C157.848 45.4272 157.608 45.4272 157.408 45.4221C157.209 45.4221 157.035 45.417 156.892 45.417H156.636C156.559 45.417 156.493 45.417 156.426 45.4272C156.441 45.1977 156.452 44.9579 156.462 44.7182C156.467 44.4784 156.472 44.2029 156.472 43.8917V43.1265ZM157.306 44.2998V44.6365C157.306 44.7437 157.306 44.8457 157.306 44.9324C157.306 45.0242 157.306 45.0803 157.306 45.1059C157.362 45.1059 157.429 45.111 157.511 45.1161C157.587 45.1161 157.685 45.1212 157.802 45.1212C158.227 45.1212 158.565 44.9783 158.81 44.6875C159.056 44.4019 159.184 43.9632 159.184 43.3816C159.184 43.1521 159.153 42.9429 159.092 42.7593C159.03 42.5756 158.943 42.4175 158.831 42.2899C158.718 42.1624 158.585 42.0604 158.426 41.9941C158.268 41.9277 158.094 41.892 157.9 41.892C157.767 41.892 157.654 41.892 157.572 41.9022C157.485 41.9073 157.403 41.9124 157.316 41.9226C157.316 41.9481 157.316 42.0094 157.316 42.0961C157.316 42.1879 157.316 42.2848 157.316 42.3971V44.2998H157.306Z" fill="white"/>
<path d="M162.049 41.6676C162.049 41.5451 162.09 41.438 162.176 41.3513C162.263 41.2646 162.366 41.2238 162.494 41.2238C162.622 41.2238 162.724 41.2646 162.811 41.3513C162.898 41.438 162.939 41.54 162.939 41.6676C162.939 41.7951 162.898 41.8971 162.811 41.9839C162.724 42.0706 162.622 42.1114 162.494 42.1114C162.366 42.1114 162.263 42.0706 162.176 41.9839C162.09 41.8971 162.049 41.7951 162.049 41.6676ZM162.12 43.9734C162.12 43.7438 162.12 43.5296 162.11 43.3306C162.1 43.1316 162.09 42.9276 162.074 42.7286C162.125 42.7337 162.187 42.744 162.258 42.7491C162.33 42.7542 162.407 42.7593 162.494 42.7593C162.668 42.7593 162.811 42.7491 162.913 42.7286C162.893 42.9327 162.882 43.1316 162.877 43.3306C162.872 43.5296 162.867 43.7438 162.867 43.9734V44.1978C162.867 44.4274 162.867 44.6416 162.877 44.8457C162.882 45.0497 162.898 45.2436 162.913 45.4272C162.867 45.4221 162.806 45.417 162.729 45.417H162.253C162.182 45.417 162.12 45.417 162.069 45.4272C162.09 45.2385 162.1 45.0446 162.105 44.8457C162.11 44.6467 162.115 44.4274 162.115 44.1978V43.9734H162.12Z" fill="white"/>
<path d="M166.407 42.8358C166.407 42.8358 166.402 42.8817 166.402 42.9072C166.402 42.9276 166.402 42.9531 166.407 42.9786C166.407 43.0041 166.413 43.0245 166.418 43.05L165.891 43.0398V43.5041C165.891 43.8713 165.891 44.208 165.901 44.5141C165.906 44.8202 165.921 45.1263 165.937 45.4272C165.886 45.4221 165.824 45.417 165.753 45.417H165.282C165.205 45.417 165.144 45.417 165.098 45.4272C165.113 45.1263 165.123 44.8202 165.134 44.5141C165.139 44.208 165.144 43.8713 165.144 43.5041V43.0449H164.75C164.76 43.0041 164.765 42.9582 164.765 42.9123C164.765 42.8664 164.76 42.8154 164.75 42.7593L165.144 42.7746C165.18 42.545 165.231 42.3358 165.287 42.142C165.343 41.9481 165.415 41.7798 165.507 41.637C165.599 41.4941 165.717 41.3819 165.855 41.3054C165.993 41.2238 166.167 41.183 166.367 41.183C166.428 41.183 166.51 41.1932 166.602 41.2136C166.592 41.2748 166.581 41.3564 166.581 41.4584C166.581 41.5604 166.581 41.6625 166.581 41.7594V41.943L166.515 41.9635C166.438 41.9226 166.351 41.8869 166.254 41.8512C166.157 41.8155 166.065 41.8002 165.973 41.8002C165.865 41.8002 165.778 41.8206 165.722 41.8512C165.666 41.8869 165.635 41.9482 165.635 42.04C165.635 42.1318 165.661 42.2389 165.712 42.3716C165.763 42.5042 165.824 42.6368 165.901 42.7695L166.428 42.7593C166.428 42.7899 166.423 42.8154 166.418 42.8358H166.407Z" fill="white"/>
<path d="M169.538 42.8358C169.538 42.8358 169.533 42.8817 169.533 42.9072C169.533 42.9276 169.533 42.9531 169.538 42.9786C169.538 43.0041 169.544 43.0245 169.549 43.05L169.022 43.0398V43.5041C169.022 43.8713 169.022 44.208 169.032 44.5141C169.037 44.8202 169.052 45.1263 169.068 45.4272C169.017 45.4221 168.955 45.417 168.884 45.417H168.413C168.336 45.417 168.275 45.417 168.229 45.4272C168.244 45.1263 168.254 44.8202 168.265 44.5141C168.27 44.208 168.275 43.8713 168.275 43.5041V43.0449H167.881C167.891 43.0041 167.896 42.9582 167.896 42.9123C167.896 42.8664 167.891 42.8154 167.881 42.7593L168.275 42.7746C168.311 42.545 168.362 42.3358 168.418 42.142C168.474 41.9481 168.546 41.7798 168.638 41.637C168.73 41.4941 168.848 41.3819 168.986 41.3054C169.124 41.2238 169.298 41.183 169.498 41.183C169.559 41.183 169.641 41.1932 169.733 41.2136C169.723 41.2748 169.712 41.3564 169.712 41.4584C169.712 41.5604 169.712 41.6625 169.712 41.7594V41.943L169.646 41.9635C169.569 41.9226 169.482 41.8869 169.385 41.8512C169.288 41.8155 169.196 41.8002 169.104 41.8002C168.996 41.8002 168.909 41.8206 168.853 41.8512C168.797 41.8869 168.766 41.9482 168.766 42.04C168.766 42.1318 168.792 42.2389 168.843 42.3716C168.894 42.5042 168.955 42.6368 169.032 42.7695L169.559 42.7593C169.559 42.7899 169.554 42.8154 169.549 42.8358H169.538Z" fill="white"/>
<path d="M172.941 45.0243C172.833 45.1824 172.71 45.2997 172.572 45.3813C172.429 45.463 172.27 45.5038 172.091 45.5038C171.81 45.5038 171.595 45.4273 171.442 45.2691C171.288 45.111 171.211 44.8508 171.211 44.4886C171.211 44.2999 171.211 44.1315 171.222 43.9836C171.232 43.8357 171.232 43.6928 171.232 43.5449C171.232 43.4275 171.232 43.2949 171.222 43.1572C171.217 43.0194 171.211 42.8766 171.201 42.7338C171.247 42.7389 171.314 42.7491 171.385 42.7542C171.462 42.7593 171.539 42.7644 171.621 42.7644C171.703 42.7644 171.784 42.7644 171.856 42.7542C171.933 42.7491 171.994 42.744 172.04 42.7338C172.015 42.9378 171.999 43.1674 171.989 43.4377C171.984 43.703 171.979 44.004 171.979 44.3458C171.979 44.5804 172.02 44.7539 172.102 44.8661C172.183 44.9783 172.296 45.0294 172.444 45.0294C172.613 45.0294 172.736 44.9579 172.818 44.81C172.895 44.6621 172.935 44.4631 172.935 44.2029V43.9785C172.935 43.7489 172.935 43.5347 172.925 43.3357C172.92 43.1368 172.91 42.9327 172.889 42.7338C172.997 42.7542 173.135 42.7644 173.314 42.7644C173.401 42.7644 173.478 42.7644 173.549 42.7542C173.621 42.7491 173.682 42.744 173.734 42.7338C173.713 42.9378 173.703 43.1368 173.698 43.3357C173.693 43.5347 173.688 43.7489 173.688 43.9785V44.2029C173.688 44.4325 173.688 44.6468 173.698 44.8508C173.703 45.0549 173.713 45.2487 173.734 45.4324C173.667 45.4273 173.601 45.4222 173.534 45.4222H173.135C173.069 45.4222 172.997 45.4222 172.925 45.4324L172.946 45.0294H172.935L172.941 45.0243Z" fill="white"/>
<path d="M175.872 44.912C175.908 44.9681 175.954 45.014 176.005 45.0599C176.056 45.1008 176.118 45.1365 176.194 45.162C176.266 45.1875 176.353 45.2028 176.45 45.2028C176.583 45.2028 176.685 45.1671 176.752 45.1008C176.824 45.0344 176.859 44.963 176.859 44.8814C176.859 44.7947 176.829 44.7284 176.762 44.6722C176.696 44.6161 176.619 44.5702 176.522 44.5294C176.425 44.4886 176.322 44.4427 176.21 44.3968C176.097 44.3509 175.995 44.2947 175.898 44.2233C175.8 44.1519 175.724 44.0652 175.657 43.9632C175.596 43.856 175.56 43.7234 175.56 43.5602C175.56 43.3969 175.591 43.2694 175.647 43.1521C175.703 43.0398 175.78 42.9429 175.877 42.8715C175.969 42.8001 176.077 42.7439 176.194 42.7082C176.312 42.6725 176.43 42.6572 176.547 42.6572C176.706 42.6572 176.844 42.6776 176.967 42.7235C177.09 42.7695 177.212 42.8358 177.34 42.9174C177.304 42.9939 177.279 43.0704 177.253 43.1572C177.233 43.2439 177.212 43.3255 177.202 43.4122H177.044C177.033 43.3663 177.013 43.3153 176.987 43.2643C176.962 43.2082 176.926 43.1572 176.88 43.1112C176.834 43.0653 176.783 43.0245 176.716 42.9888C176.655 42.9582 176.578 42.9429 176.486 42.9429C176.373 42.9429 176.276 42.9735 176.205 43.0347C176.128 43.0959 176.087 43.1725 176.087 43.2694C176.087 43.3612 176.118 43.4326 176.184 43.4836C176.251 43.5398 176.332 43.5857 176.43 43.6265C176.527 43.6673 176.634 43.7081 176.752 43.7489C176.87 43.7897 176.977 43.8458 177.074 43.907C177.171 43.9734 177.253 44.0601 177.32 44.1621C177.386 44.2692 177.417 44.4019 177.417 44.5651C177.417 44.7284 177.386 44.8712 177.325 44.9885C177.264 45.1059 177.182 45.2028 177.084 45.2793C176.982 45.3558 176.87 45.4119 176.737 45.4425C176.604 45.4732 176.471 45.4936 176.327 45.4936C176.158 45.4936 176.005 45.4681 175.872 45.4221C175.739 45.3711 175.632 45.3252 175.55 45.2691C175.596 45.0906 175.621 44.912 175.637 44.7284H175.775C175.795 44.7896 175.826 44.8457 175.862 44.9018L175.872 44.912Z" fill="white"/>
<path d="M179.289 41.6676C179.289 41.5451 179.33 41.438 179.417 41.3513C179.504 41.2646 179.607 41.2238 179.735 41.2238C179.862 41.2238 179.965 41.2646 180.052 41.3513C180.139 41.438 180.18 41.54 180.18 41.6676C180.18 41.7951 180.139 41.8971 180.052 41.9839C179.965 42.0706 179.862 42.1114 179.735 42.1114C179.607 42.1114 179.504 42.0706 179.417 41.9839C179.33 41.8971 179.289 41.7951 179.289 41.6676ZM179.356 43.9734C179.356 43.7438 179.356 43.5296 179.346 43.3306C179.335 43.1316 179.325 42.9276 179.31 42.7286C179.361 42.7337 179.422 42.744 179.494 42.7491C179.566 42.7542 179.642 42.7593 179.729 42.7593C179.903 42.7593 180.047 42.7491 180.149 42.7286C180.128 42.9327 180.118 43.1316 180.113 43.3306C180.108 43.5296 180.103 43.7438 180.103 43.9734V44.1978C180.103 44.4274 180.103 44.6416 180.113 44.8457C180.118 45.0497 180.134 45.2436 180.149 45.4272C180.103 45.4221 180.041 45.417 179.965 45.417H179.489C179.417 45.417 179.356 45.417 179.305 45.4272C179.325 45.2385 179.335 45.0446 179.341 44.8457C179.346 44.6467 179.351 44.4274 179.351 44.1978V43.9734H179.356Z" fill="white"/>
<path d="M182.062 44.157C182.062 43.907 182.103 43.6877 182.18 43.4989C182.257 43.3102 182.359 43.1572 182.487 43.0296C182.615 42.9021 182.763 42.8103 182.927 42.7491C183.091 42.6878 183.265 42.6572 183.444 42.6572C183.884 42.6572 184.221 42.7797 184.462 43.0296C184.702 43.2745 184.82 43.6112 184.82 44.0346C184.82 44.2641 184.784 44.4682 184.718 44.6518C184.651 44.8355 184.554 44.9936 184.431 45.1212C184.308 45.2487 184.165 45.3456 183.996 45.4119C183.827 45.4732 183.643 45.5089 183.439 45.5089C183.27 45.5089 183.106 45.4885 182.942 45.4425C182.779 45.3966 182.63 45.3201 182.502 45.213C182.374 45.1059 182.267 44.9681 182.185 44.7947C182.103 44.6212 182.062 44.4121 182.062 44.1621V44.157ZM183.986 43.9479C183.986 43.6163 183.945 43.3612 183.863 43.1827C183.781 42.999 183.643 42.9123 183.454 42.9123C183.28 42.9123 183.147 43.0143 183.045 43.2133C182.947 43.4173 182.896 43.7336 182.896 44.1621C182.896 44.3203 182.907 44.4631 182.922 44.6008C182.937 44.7386 182.973 44.8508 183.014 44.9528C183.055 45.0548 183.111 45.1314 183.183 45.1875C183.254 45.2436 183.341 45.2742 183.444 45.2742C183.802 45.2742 183.986 44.8355 183.986 43.9581V43.9479Z" fill="white"/>
<path d="M187.465 43.1521C187.572 42.9939 187.695 42.8715 187.833 42.7848C187.976 42.698 188.135 42.6572 188.314 42.6572C188.595 42.6572 188.81 42.7388 188.964 42.9021C189.117 43.0653 189.194 43.3255 189.194 43.6928C189.194 43.8815 189.194 44.0499 189.184 44.1978C189.174 44.3458 189.174 44.4886 189.174 44.6365C189.174 44.7539 189.174 44.8865 189.184 45.0242C189.189 45.162 189.194 45.2997 189.204 45.4323C189.153 45.4272 189.092 45.4221 189.02 45.4221H188.549C188.473 45.4221 188.411 45.4221 188.365 45.4323C188.391 45.2385 188.406 45.0089 188.416 44.7437C188.422 44.4784 188.427 44.1774 188.427 43.8356C188.427 43.601 188.386 43.4275 188.304 43.3153C188.222 43.2031 188.109 43.1521 187.961 43.1521C187.792 43.1521 187.669 43.2235 187.588 43.3714C187.511 43.5193 187.47 43.7183 187.47 43.9785V44.2029C187.47 44.4325 187.47 44.6467 187.48 44.8508C187.485 45.0548 187.501 45.2487 187.516 45.4323C187.465 45.4272 187.409 45.4221 187.332 45.4221H186.856C186.784 45.4221 186.723 45.4221 186.672 45.4323C186.692 45.2436 186.703 45.0497 186.708 44.8508C186.713 44.6518 186.718 44.4325 186.718 44.2029V43.9785C186.718 43.7489 186.718 43.5347 186.708 43.3357C186.697 43.1367 186.687 42.9327 186.672 42.7337C186.738 42.7388 186.805 42.749 186.871 42.7541C186.938 42.7593 187.004 42.7644 187.071 42.7644C187.137 42.7644 187.204 42.7644 187.27 42.7541C187.337 42.749 187.409 42.7439 187.48 42.7337L187.46 43.1572H187.47L187.465 43.1521Z" fill="white"/>
<path d="M104.842 50.8245C104.842 50.9724 104.857 51.1152 104.888 51.2428C104.918 51.3754 104.965 51.4876 105.026 51.5846C105.087 51.6815 105.164 51.7529 105.261 51.809C105.358 51.8651 105.471 51.8906 105.594 51.8906C105.855 51.8906 106.085 51.8039 106.284 51.6356L106.351 51.6866L106.228 52.0029C106.136 52.0743 106.024 52.1304 105.891 52.1763C105.757 52.2171 105.589 52.2426 105.374 52.2426C105.19 52.2426 105.016 52.2171 104.852 52.1661C104.688 52.1151 104.54 52.0335 104.417 51.9161C104.289 51.7988 104.192 51.6509 104.12 51.4774C104.049 51.2989 104.013 51.0897 104.013 50.8398C104.013 50.5898 104.044 50.3857 104.11 50.2072C104.177 50.0286 104.269 49.8756 104.381 49.7583C104.499 49.641 104.637 49.5491 104.796 49.4879C104.954 49.4267 105.128 49.3961 105.318 49.3961C105.691 49.3961 105.972 49.5032 106.172 49.7226C106.371 49.9419 106.469 50.248 106.469 50.6408V50.7581C106.469 50.7938 106.469 50.8143 106.463 50.8245H104.847H104.842ZM105.706 50.5694C105.701 50.2888 105.665 50.0644 105.604 49.896C105.543 49.7277 105.44 49.6409 105.292 49.6409C105.21 49.6409 105.138 49.6716 105.082 49.7277C105.026 49.7838 104.98 49.8552 104.949 49.9419C104.913 50.0287 104.888 50.1307 104.872 50.2378C104.857 50.3449 104.847 50.4572 104.842 50.5643H105.706V50.5694Z" fill="white"/>
<path d="M109.523 49.646C109.523 49.697 109.528 49.7429 109.538 49.7838L109.042 49.7736C109.037 49.8603 109.027 49.9572 109.022 50.0694C109.016 50.1817 109.011 50.2939 109.011 50.4112C109.011 50.5286 109.011 50.6408 109.006 50.7479C109.006 50.855 109.006 50.9469 109.006 51.0234C109.006 51.2172 109.006 51.3754 109.022 51.4927C109.032 51.61 109.047 51.7019 109.068 51.7682C109.088 51.8294 109.124 51.8753 109.165 51.8957C109.206 51.9161 109.257 51.9314 109.323 51.9314C109.395 51.9314 109.446 51.9314 109.482 51.9161C109.518 51.9059 109.548 51.8906 109.584 51.8753V52.1049C109.508 52.1406 109.415 52.1661 109.303 52.1967C109.19 52.2273 109.078 52.2375 108.97 52.2375C108.495 52.2375 108.254 51.9518 108.254 51.3856C108.254 51.2784 108.254 51.156 108.259 51.0183C108.259 50.8805 108.269 50.7428 108.275 50.5949C108.28 50.452 108.285 50.3092 108.29 50.1664C108.29 50.0286 108.295 49.896 108.295 49.7787H107.901C107.911 49.7378 107.916 49.6919 107.916 49.646C107.916 49.6001 107.911 49.5491 107.901 49.493L108.295 49.5083C108.295 49.391 108.295 49.2838 108.29 49.1818C108.29 49.0798 108.28 48.9573 108.275 48.8145C108.408 48.7635 108.535 48.7074 108.663 48.6513C108.791 48.5952 108.919 48.5339 109.047 48.4676L109.103 48.5084C109.093 48.5696 109.088 48.636 109.083 48.7176C109.078 48.7992 109.073 48.8808 109.068 48.9727C109.062 49.0594 109.057 49.1512 109.057 49.243C109.057 49.3348 109.057 49.4216 109.057 49.5032L109.554 49.493C109.543 49.5491 109.538 49.6001 109.538 49.646H109.523Z" fill="white"/>
<path d="M116.235 50.2378C116.235 50.6051 116.235 50.9418 116.245 51.2479C116.25 51.5539 116.266 51.86 116.281 52.161C116.23 52.1559 116.169 52.1508 116.097 52.1508H115.642C115.57 52.1508 115.519 52.1508 115.483 52.161C115.483 52.1559 115.488 52.1304 115.493 52.0896C115.493 52.0488 115.503 52.0029 115.509 51.9518C115.514 51.9008 115.519 51.8498 115.524 51.8039C115.524 51.758 115.529 51.7325 115.529 51.7172L115.519 51.707C115.447 51.8753 115.35 52.0029 115.227 52.0947C115.104 52.1865 114.93 52.2324 114.716 52.2324C114.526 52.2324 114.363 52.1967 114.224 52.1253C114.091 52.0539 113.979 51.9518 113.892 51.8192C113.805 51.6866 113.744 51.5335 113.703 51.3601C113.662 51.1866 113.641 50.9928 113.641 50.7938C113.641 50.5949 113.667 50.4061 113.728 50.2378C113.784 50.0695 113.861 49.9215 113.958 49.794C114.056 49.6665 114.173 49.5695 114.306 49.4981C114.439 49.4267 114.583 49.391 114.731 49.391C114.9 49.391 115.048 49.4318 115.181 49.5083C115.314 49.5848 115.411 49.6869 115.478 49.8042H115.488C115.488 49.4675 115.488 49.1512 115.478 48.8553C115.468 48.5595 115.457 48.2483 115.442 47.932C115.493 47.9371 115.555 47.9473 115.626 47.9524C115.703 47.9575 115.78 47.9626 115.862 47.9626C115.943 47.9626 116.025 47.9626 116.097 47.9524C116.174 47.9473 116.235 47.9422 116.281 47.932C116.266 48.2483 116.255 48.5544 116.245 48.8655C116.24 49.1716 116.235 49.5083 116.235 49.8756V50.2378ZM114.47 50.8806C114.47 51.0693 114.485 51.2326 114.511 51.3652C114.537 51.4978 114.572 51.5999 114.618 51.6815C114.664 51.7631 114.716 51.8192 114.772 51.8549C114.828 51.8906 114.89 51.9059 114.956 51.9059C115.11 51.9059 115.237 51.8192 115.335 51.6458C115.432 51.4723 115.483 51.1815 115.483 50.7785C115.483 50.4317 115.437 50.1766 115.345 50.0184C115.253 49.8603 115.13 49.7787 114.987 49.7787C114.925 49.7787 114.864 49.794 114.808 49.8297C114.746 49.8654 114.695 49.9215 114.644 50.0082C114.593 50.095 114.557 50.2072 114.521 50.35C114.49 50.4929 114.475 50.6714 114.475 50.8806H114.47Z" fill="white"/>
<path d="M118.721 50.8245C118.721 50.9724 118.737 51.1152 118.767 51.2428C118.798 51.3754 118.844 51.4876 118.906 51.5846C118.967 51.6815 119.044 51.7529 119.141 51.809C119.238 51.8651 119.351 51.8906 119.473 51.8906C119.734 51.8906 119.965 51.8039 120.164 51.6356L120.231 51.6866L120.108 52.0029C120.016 52.0743 119.903 52.1304 119.77 52.1763C119.637 52.2171 119.468 52.2426 119.253 52.2426C119.069 52.2426 118.895 52.2171 118.732 52.1661C118.568 52.1151 118.42 52.0335 118.297 51.9161C118.169 51.7988 118.072 51.6509 118 51.4774C117.928 51.2989 117.893 51.0897 117.893 50.8398C117.893 50.5898 117.923 50.3857 117.99 50.2072C118.056 50.0286 118.148 49.8756 118.261 49.7583C118.379 49.641 118.517 49.5491 118.675 49.4879C118.834 49.4267 119.008 49.3961 119.197 49.3961C119.571 49.3961 119.852 49.5032 120.052 49.7226C120.251 49.9419 120.348 50.248 120.348 50.6408V50.7581C120.348 50.7938 120.348 50.8143 120.343 50.8245H118.726H118.721ZM119.591 50.5694C119.586 50.2888 119.55 50.0644 119.489 49.896C119.427 49.7277 119.325 49.6409 119.177 49.6409C119.095 49.6409 119.023 49.6716 118.967 49.7277C118.911 49.7838 118.865 49.8552 118.834 49.9419C118.798 50.0287 118.773 50.1307 118.757 50.2378C118.742 50.3449 118.732 50.4572 118.726 50.5643H119.591V50.5694Z" fill="white"/>
<path d="M124.676 51.406C124.676 51.0387 124.676 50.702 124.666 50.3959C124.656 50.0898 124.646 49.7787 124.63 49.4624C124.692 49.4675 124.758 49.4777 124.825 49.4828C124.891 49.4879 124.958 49.493 125.019 49.493C125.081 49.493 125.147 49.493 125.214 49.4828C125.28 49.4777 125.341 49.4726 125.408 49.4624C125.403 49.5236 125.393 49.6001 125.382 49.6919C125.372 49.7787 125.367 49.8654 125.367 49.947H125.377C125.428 49.7889 125.526 49.6562 125.664 49.5491C125.802 49.442 125.971 49.391 126.175 49.391C126.319 49.391 126.457 49.4165 126.585 49.4675C126.718 49.5185 126.83 49.6001 126.933 49.7123C127.035 49.8246 127.117 49.9674 127.173 50.146C127.229 50.3245 127.265 50.5337 127.265 50.7734C127.265 51.0387 127.234 51.2631 127.168 51.4519C127.106 51.6406 127.02 51.7937 126.917 51.911C126.815 52.0283 126.697 52.11 126.564 52.161C126.431 52.212 126.293 52.2324 126.155 52.2324C125.986 52.2324 125.838 52.2018 125.715 52.1355C125.592 52.0743 125.495 51.9722 125.428 51.8396H125.418V52.2936C125.418 52.4262 125.418 52.5589 125.418 52.6966C125.418 52.8344 125.418 52.9619 125.428 53.0843C125.428 53.2067 125.439 53.319 125.444 53.4159C125.449 53.5128 125.454 53.5842 125.464 53.6353C125.413 53.6302 125.352 53.62 125.28 53.6149C125.203 53.6098 125.127 53.6047 125.045 53.6047C124.963 53.6047 124.881 53.6046 124.809 53.6149C124.733 53.62 124.671 53.6251 124.625 53.6353C124.63 53.4771 124.641 53.3241 124.646 53.171C124.651 53.018 124.656 52.865 124.661 52.7068C124.661 52.5487 124.666 52.3905 124.671 52.2273C124.671 52.0692 124.671 51.8957 124.671 51.7121V51.406H124.676ZM126.447 50.7938C126.447 50.4214 126.4 50.1562 126.308 49.9878C126.216 49.8195 126.094 49.7379 125.945 49.7379C125.874 49.7379 125.807 49.7583 125.741 49.7991C125.674 49.8399 125.618 49.9062 125.567 49.9929C125.515 50.0847 125.474 50.2021 125.444 50.3449C125.413 50.4928 125.398 50.6663 125.398 50.8754C125.398 51.2172 125.444 51.4672 125.531 51.6304C125.618 51.7937 125.746 51.8753 125.914 51.8753C126.083 51.8753 126.206 51.7886 126.298 51.61C126.39 51.4366 126.441 51.1611 126.441 50.7836L126.447 50.7938Z" fill="white"/>
<path d="M129.695 50.1613C129.792 49.9011 129.91 49.7124 130.048 49.5899C130.186 49.4675 130.35 49.4063 130.544 49.4063C130.565 49.4063 130.58 49.4063 130.59 49.4063C130.606 49.4063 130.616 49.4063 130.631 49.4063C130.621 49.4624 130.611 49.5236 130.606 49.5848C130.601 49.646 130.596 49.7226 130.596 49.8093V50.0848C130.596 50.1205 130.596 50.1511 130.601 50.1817L130.549 50.2276C130.514 50.2072 130.468 50.1868 130.422 50.1715C130.376 50.1562 130.319 50.1511 130.263 50.1511C130.094 50.1511 129.961 50.2072 129.864 50.3143C129.767 50.4214 129.716 50.5541 129.716 50.702V50.9265C129.716 51.156 129.716 51.3703 129.726 51.5743C129.736 51.7784 129.746 51.9722 129.762 52.1559C129.716 52.1508 129.654 52.1457 129.577 52.1457H129.102C129.03 52.1457 128.969 52.1457 128.917 52.1559C128.938 51.9671 128.948 51.7733 128.953 51.5743C128.958 51.3754 128.964 51.156 128.964 50.9265V50.702C128.964 50.4725 128.964 50.2582 128.953 50.0592C128.943 49.8603 128.933 49.6562 128.917 49.4573C128.979 49.4624 129.045 49.4726 129.112 49.4777C129.178 49.4828 129.24 49.4879 129.306 49.4879C129.373 49.4879 129.434 49.4879 129.501 49.4777C129.567 49.4726 129.629 49.4675 129.695 49.4573L129.68 50.1409L129.69 50.1511L129.695 50.1613Z" fill="white"/>
<path d="M132.089 50.8907C132.089 50.6408 132.13 50.4214 132.207 50.2327C132.284 50.0439 132.386 49.8909 132.514 49.7634C132.642 49.6358 132.79 49.544 132.954 49.4828C133.118 49.4216 133.292 49.391 133.471 49.391C133.911 49.391 134.248 49.5134 134.489 49.7634C134.729 50.0082 134.847 50.3449 134.847 50.7683C134.847 50.9979 134.811 51.2019 134.745 51.3856C134.678 51.5692 134.581 51.7274 134.458 51.8549C134.335 51.9824 134.192 52.0794 134.023 52.1457C133.854 52.2069 133.67 52.2426 133.466 52.2426C133.297 52.2426 133.133 52.2222 132.969 52.1763C132.806 52.1304 132.657 52.0538 132.529 51.9467C132.402 51.8396 132.294 51.7019 132.212 51.5284C132.13 51.355 132.089 51.1458 132.089 50.8958V50.8907ZM134.013 50.6816C134.013 50.35 133.972 50.0949 133.89 49.9164C133.808 49.7327 133.67 49.646 133.481 49.646C133.307 49.646 133.174 49.7481 133.072 49.947C132.975 50.1511 132.923 50.4673 132.923 50.8958C132.923 51.054 132.934 51.1968 132.949 51.3346C132.964 51.4723 133 51.5845 133.041 51.6866C133.082 51.7886 133.138 51.8651 133.21 51.9212C133.282 51.9773 133.368 52.0079 133.471 52.0079C133.829 52.0079 134.013 51.5692 134.013 50.6918V50.6816Z" fill="white"/>
<path d="M137.241 49.8858C137.349 49.7276 137.471 49.6052 137.61 49.5185C137.753 49.4318 137.911 49.391 138.09 49.391C138.259 49.391 138.403 49.4369 138.525 49.5287C138.648 49.6205 138.74 49.7532 138.807 49.9266C138.919 49.7532 139.052 49.6205 139.201 49.5287C139.349 49.4369 139.508 49.391 139.676 49.391C139.958 49.391 140.173 49.4726 140.326 49.6358C140.48 49.7991 140.556 50.0592 140.556 50.4265C140.556 50.6153 140.556 50.7836 140.546 50.9316C140.536 51.0795 140.536 51.2223 140.536 51.3703C140.536 51.4876 140.536 51.6202 140.546 51.758C140.551 51.8957 140.556 52.0334 140.567 52.1661C140.515 52.161 140.454 52.1559 140.382 52.1559H139.912C139.835 52.1559 139.774 52.1559 139.728 52.1661C139.753 51.9722 139.769 51.7427 139.779 51.4774C139.784 51.2121 139.789 50.9112 139.789 50.5694C139.789 50.3347 139.748 50.1613 139.671 50.049C139.595 49.9368 139.482 49.8858 139.339 49.8858C139.247 49.8858 139.175 49.9062 139.119 49.947C139.063 49.9878 139.016 50.0439 138.981 50.1051C138.945 50.1715 138.924 50.2429 138.914 50.3143C138.904 50.3908 138.899 50.4622 138.899 50.5286V50.9316C138.899 51.1611 138.899 51.3754 138.909 51.5794C138.919 51.7835 138.924 51.9773 138.945 52.161C138.894 52.1559 138.837 52.1508 138.761 52.1508H138.285C138.213 52.1508 138.152 52.1508 138.101 52.161C138.121 51.9722 138.131 51.7784 138.137 51.5794C138.142 51.3805 138.147 51.1611 138.147 50.9316V50.5898C138.147 50.3653 138.116 50.1919 138.06 50.0694C138.003 49.947 137.896 49.8858 137.737 49.8858C137.569 49.8858 137.446 49.9572 137.364 50.1051C137.287 50.2531 137.246 50.452 137.246 50.7122V50.9367C137.246 51.1662 137.246 51.3805 137.257 51.5845C137.262 51.7886 137.272 51.9824 137.292 52.1661C137.241 52.161 137.185 52.1559 137.108 52.1559H136.632C136.561 52.1559 136.499 52.1559 136.448 52.1661C136.469 51.9773 136.479 51.7835 136.484 51.5845C136.489 51.3805 136.494 51.1662 136.494 50.9367V50.7122C136.494 50.4826 136.494 50.2684 136.484 50.0694C136.479 49.8705 136.469 49.6664 136.448 49.4675C136.515 49.4726 136.581 49.4828 136.648 49.4879C136.714 49.493 136.781 49.4981 136.847 49.4981C136.914 49.4981 136.98 49.4981 137.047 49.4879C137.113 49.4828 137.185 49.4777 137.257 49.4675L137.236 49.8909H137.246L137.241 49.8858Z" fill="white"/>
<path d="M142.158 50.8907C142.158 50.6408 142.199 50.4214 142.275 50.2327C142.352 50.0439 142.454 49.8909 142.582 49.7634C142.71 49.6358 142.859 49.544 143.022 49.4828C143.186 49.4216 143.36 49.391 143.539 49.391C143.979 49.391 144.317 49.5134 144.557 49.7634C144.798 50.0082 144.915 50.3449 144.915 50.7683C144.915 50.9979 144.879 51.2019 144.813 51.3856C144.746 51.5692 144.649 51.7274 144.526 51.8549C144.404 51.9824 144.26 52.0794 144.092 52.1457C143.923 52.2069 143.739 52.2426 143.534 52.2426C143.365 52.2426 143.201 52.2222 143.038 52.1763C142.874 52.1304 142.726 52.0538 142.598 51.9467C142.47 51.8396 142.362 51.7019 142.28 51.5284C142.199 51.355 142.158 51.1458 142.158 50.8958V50.8907ZM144.081 50.6816C144.081 50.35 144.04 50.0949 143.959 49.9164C143.877 49.7327 143.739 49.646 143.549 49.646C143.375 49.646 143.242 49.7481 143.14 49.947C143.043 50.1511 142.992 50.4673 142.992 50.8958C142.992 51.054 143.002 51.1968 143.017 51.3346C143.033 51.4723 143.068 51.5845 143.109 51.6866C143.15 51.7886 143.206 51.8651 143.278 51.9212C143.35 51.9773 143.437 52.0079 143.539 52.0079C143.897 52.0079 144.081 51.5692 144.081 50.6918V50.6816Z" fill="white"/>
<path d="M147.985 49.646C147.985 49.697 147.99 49.7429 148 49.7838L147.504 49.7736C147.499 49.8603 147.489 49.9572 147.483 50.0694C147.478 50.1817 147.473 50.2939 147.473 50.4112C147.473 50.5286 147.473 50.6408 147.468 50.7479C147.468 50.855 147.468 50.9469 147.468 51.0234C147.468 51.2172 147.468 51.3754 147.483 51.4927C147.494 51.61 147.509 51.7019 147.529 51.7682C147.55 51.8294 147.586 51.8753 147.627 51.8957C147.668 51.9161 147.719 51.9314 147.785 51.9314C147.857 51.9314 147.908 51.9314 147.944 51.9161C147.98 51.9059 148.01 51.8906 148.046 51.8753V52.1049C147.969 52.1406 147.877 52.1661 147.765 52.1967C147.652 52.2273 147.54 52.2375 147.432 52.2375C146.956 52.2375 146.716 51.9518 146.716 51.3856C146.716 51.2784 146.716 51.156 146.721 51.0183C146.721 50.8805 146.731 50.7428 146.737 50.5949C146.742 50.452 146.747 50.3092 146.752 50.1664C146.752 50.0286 146.757 49.896 146.757 49.7787H146.363C146.373 49.7378 146.378 49.6919 146.378 49.646C146.378 49.6001 146.373 49.5491 146.363 49.493L146.757 49.5083C146.757 49.391 146.757 49.2838 146.752 49.1818C146.752 49.0798 146.742 48.9573 146.737 48.8145C146.87 48.7635 146.997 48.7074 147.125 48.6513C147.253 48.5952 147.381 48.5339 147.509 48.4676L147.565 48.5084C147.555 48.5696 147.55 48.636 147.545 48.7176C147.54 48.7992 147.535 48.8808 147.529 48.9727C147.524 49.0594 147.519 49.1512 147.519 49.243C147.519 49.3348 147.519 49.4216 147.519 49.5032L148.016 49.493C148.005 49.5491 148 49.6001 148 49.646H147.985Z" fill="white"/>
<path d="M149.566 48.4013C149.566 48.2789 149.607 48.1717 149.694 48.085C149.781 47.9983 149.883 47.9575 150.011 47.9575C150.139 47.9575 150.241 47.9983 150.328 48.085C150.415 48.1717 150.456 48.2738 150.456 48.4013C150.456 48.5288 150.415 48.6309 150.328 48.7176C150.241 48.8043 150.139 48.8451 150.011 48.8451C149.883 48.8451 149.781 48.8043 149.694 48.7176C149.607 48.6309 149.566 48.5288 149.566 48.4013ZM149.632 50.7071C149.632 50.4775 149.632 50.2633 149.622 50.0643C149.612 49.8654 149.601 49.6613 149.586 49.4624C149.637 49.4675 149.699 49.4777 149.77 49.4828C149.842 49.4879 149.919 49.493 150.006 49.493C150.18 49.493 150.323 49.4828 150.425 49.4624C150.405 49.6664 150.394 49.8654 150.389 50.0643C150.384 50.2633 150.379 50.4775 150.379 50.7071V50.9316C150.379 51.1611 150.379 51.3754 150.389 51.5794C150.394 51.7835 150.41 51.9773 150.425 52.161C150.379 52.1559 150.318 52.1508 150.241 52.1508H149.765C149.694 52.1508 149.632 52.1508 149.581 52.161C149.601 51.9722 149.612 51.7784 149.617 51.5794C149.622 51.3805 149.627 51.1611 149.627 50.9316V50.7071H149.632Z" fill="white"/>
<path d="M152.103 50.8907C152.103 50.6408 152.144 50.4214 152.221 50.2327C152.298 50.0439 152.4 49.8909 152.528 49.7634C152.656 49.6358 152.804 49.544 152.968 49.4828C153.131 49.4216 153.305 49.391 153.484 49.391C153.924 49.391 154.262 49.5134 154.503 49.7634C154.743 50.0082 154.861 50.3449 154.861 50.7683C154.861 50.9979 154.825 51.2019 154.758 51.3856C154.692 51.5692 154.595 51.7274 154.472 51.8549C154.349 51.9824 154.206 52.0794 154.037 52.1457C153.868 52.2069 153.684 52.2426 153.479 52.2426C153.311 52.2426 153.147 52.2222 152.983 52.1763C152.819 52.1304 152.671 52.0538 152.543 51.9467C152.415 51.8396 152.308 51.7019 152.226 51.5284C152.144 51.355 152.103 51.1458 152.103 50.8958V50.8907ZM154.027 50.6816C154.027 50.35 153.986 50.0949 153.904 49.9164C153.822 49.7327 153.684 49.646 153.495 49.646C153.321 49.646 153.188 49.7481 153.085 49.947C152.988 50.1511 152.937 50.4673 152.937 50.8958C152.937 51.054 152.947 51.1968 152.963 51.3346C152.978 51.4723 153.014 51.5845 153.055 51.6866C153.096 51.7886 153.152 51.8651 153.224 51.9212C153.295 51.9773 153.382 52.0079 153.484 52.0079C153.843 52.0079 154.027 51.5692 154.027 50.6918V50.6816Z" fill="white"/>
<path d="M157.265 49.8858C157.373 49.7276 157.495 49.6052 157.633 49.5185C157.777 49.4318 157.935 49.391 158.114 49.391C158.396 49.391 158.611 49.4726 158.764 49.6358C158.918 49.7991 158.994 50.0592 158.994 50.4265C158.994 50.6153 158.994 50.7836 158.984 50.9316C158.974 51.0795 158.974 51.2223 158.974 51.3703C158.974 51.4876 158.974 51.6202 158.984 51.758C158.989 51.8957 158.994 52.0334 159.005 52.1661C158.953 52.161 158.892 52.1559 158.82 52.1559H158.35C158.273 52.1559 158.212 52.1559 158.166 52.1661C158.191 51.9722 158.206 51.7427 158.217 51.4774C158.222 51.2121 158.227 50.9112 158.227 50.5694C158.227 50.3347 158.186 50.1613 158.104 50.049C158.022 49.9368 157.91 49.8858 157.761 49.8858C157.593 49.8858 157.47 49.9572 157.388 50.1051C157.311 50.2531 157.27 50.452 157.27 50.7122V50.9367C157.27 51.1662 157.27 51.3805 157.28 51.5845C157.286 51.7886 157.301 51.9824 157.316 52.1661C157.265 52.161 157.209 52.1559 157.132 52.1559H156.656C156.585 52.1559 156.523 52.1559 156.472 52.1661C156.493 51.9773 156.503 51.7835 156.508 51.5845C156.513 51.3856 156.518 51.1662 156.518 50.9367V50.7122C156.518 50.4826 156.518 50.2684 156.508 50.0694C156.498 49.8705 156.488 49.6664 156.472 49.4675C156.539 49.4726 156.605 49.4828 156.672 49.4879C156.738 49.493 156.805 49.4981 156.871 49.4981C156.938 49.4981 157.004 49.4981 157.071 49.4879C157.137 49.4828 157.209 49.4777 157.28 49.4675L157.26 49.8909H157.27L157.265 49.8858Z" fill="white"/>
<path d="M165.901 50.2378C165.901 50.6051 165.901 50.9418 165.911 51.2479C165.916 51.5539 165.932 51.86 165.947 52.161C165.896 52.1559 165.834 52.1508 165.763 52.1508H165.307C165.236 52.1508 165.185 52.1508 165.149 52.161C165.149 52.1559 165.154 52.1304 165.159 52.0896C165.159 52.0488 165.169 52.0029 165.174 51.9518C165.18 51.9008 165.185 51.8498 165.19 51.8039C165.19 51.758 165.195 51.7325 165.195 51.7172L165.185 51.707C165.113 51.8753 165.016 52.0029 164.893 52.0947C164.77 52.1865 164.596 52.2324 164.381 52.2324C164.192 52.2324 164.028 52.1967 163.89 52.1253C163.757 52.0539 163.645 51.9518 163.558 51.8192C163.471 51.6866 163.409 51.5335 163.369 51.3601C163.328 51.1866 163.307 50.9928 163.307 50.7938C163.307 50.5949 163.333 50.4061 163.394 50.2378C163.45 50.0695 163.527 49.9215 163.624 49.794C163.722 49.6665 163.839 49.5695 163.972 49.4981C164.105 49.4267 164.248 49.391 164.397 49.391C164.566 49.391 164.714 49.4318 164.847 49.5083C164.98 49.5848 165.077 49.6869 165.144 49.8042H165.154C165.154 49.4675 165.154 49.1512 165.144 48.8553C165.134 48.5595 165.123 48.2483 165.108 47.932C165.159 47.9371 165.221 47.9473 165.292 47.9524C165.369 47.9575 165.446 47.9626 165.527 47.9626C165.609 47.9626 165.691 47.9626 165.763 47.9524C165.84 47.9473 165.901 47.9422 165.947 47.932C165.932 48.2483 165.921 48.5544 165.911 48.8655C165.906 49.1716 165.901 49.5083 165.901 49.8756V50.2378ZM164.131 50.8806C164.131 51.0693 164.146 51.2326 164.172 51.3652C164.197 51.4978 164.233 51.5999 164.279 51.6815C164.325 51.7631 164.376 51.8192 164.433 51.8549C164.489 51.8906 164.55 51.9059 164.617 51.9059C164.77 51.9059 164.898 51.8192 164.995 51.6458C165.093 51.4723 165.144 51.1815 165.144 50.7785C165.144 50.4317 165.098 50.1766 165.006 50.0184C164.914 49.8603 164.791 49.7787 164.648 49.7787C164.586 49.7787 164.525 49.794 164.468 49.8297C164.407 49.8654 164.356 49.9215 164.305 50.0082C164.254 50.095 164.218 50.2072 164.182 50.35C164.151 50.4929 164.136 50.6714 164.136 50.8806H164.131Z" fill="white"/>
<path d="M169.4 51.758C169.293 51.9161 169.17 52.0335 169.032 52.1151C168.889 52.1967 168.73 52.2375 168.551 52.2375C168.27 52.2375 168.055 52.161 167.901 52.0029C167.748 51.8447 167.671 51.5845 167.671 51.2224C167.671 51.0336 167.671 50.8653 167.681 50.7173C167.692 50.5694 167.692 50.4265 167.692 50.2786C167.692 50.1613 167.692 50.0286 167.681 49.8909C167.676 49.7532 167.671 49.6103 167.661 49.4675C167.707 49.4726 167.773 49.4828 167.845 49.4879C167.922 49.493 167.999 49.4981 168.08 49.4981C168.162 49.4981 168.244 49.4981 168.316 49.4879C168.392 49.4828 168.454 49.4777 168.5 49.4675C168.474 49.6716 168.459 49.9011 168.449 50.1715C168.444 50.4367 168.439 50.7377 168.439 51.0795C168.439 51.3142 168.479 51.4876 168.561 51.5998C168.643 51.7121 168.756 51.7631 168.904 51.7631C169.073 51.7631 169.196 51.6917 169.278 51.5437C169.354 51.3958 169.395 51.1968 169.395 50.9367V50.7122C169.395 50.4827 169.395 50.2684 169.385 50.0695C169.38 49.8705 169.37 49.6665 169.349 49.4675C169.457 49.4879 169.595 49.4981 169.774 49.4981C169.861 49.4981 169.937 49.4981 170.009 49.4879C170.081 49.4828 170.142 49.4777 170.193 49.4675C170.173 49.6716 170.163 49.8705 170.157 50.0695C170.152 50.2684 170.147 50.4827 170.147 50.7122V50.9367C170.147 51.1662 170.147 51.3805 170.157 51.5845C170.163 51.7886 170.173 51.9824 170.193 52.1661C170.127 52.161 170.06 52.1559 169.994 52.1559H169.595C169.528 52.1559 169.457 52.1559 169.385 52.1661L169.405 51.7631H169.395L169.4 51.758Z" fill="white"/>
<path d="M174.706 48.8655C174.7 48.5595 174.685 48.2483 174.67 47.932C174.716 47.9371 174.782 47.9473 174.854 47.9524C174.931 47.9575 175.007 47.9626 175.089 47.9626C175.171 47.9626 175.248 47.9626 175.325 47.9524C175.401 47.9473 175.463 47.9422 175.509 47.932C175.493 48.2483 175.483 48.5544 175.473 48.8655C175.468 49.1716 175.463 49.5083 175.463 49.8756V50.2378C175.463 50.6051 175.463 50.9418 175.473 51.2479C175.478 51.5539 175.493 51.86 175.509 52.161C175.463 52.1559 175.396 52.1508 175.325 52.1508H174.854C174.777 52.1508 174.716 52.1508 174.67 52.161C174.685 51.86 174.695 51.5539 174.706 51.2479C174.711 50.9418 174.716 50.6051 174.716 50.2378V49.8756C174.716 49.5083 174.716 49.1716 174.706 48.8655Z" fill="white"/>
<path d="M177.34 48.4013C177.34 48.2789 177.381 48.1717 177.468 48.085C177.555 47.9983 177.658 47.9575 177.785 47.9575C177.913 47.9575 178.016 47.9983 178.103 48.085C178.19 48.1717 178.231 48.2738 178.231 48.4013C178.231 48.5288 178.19 48.6309 178.103 48.7176C178.016 48.8043 177.913 48.8451 177.785 48.8451C177.658 48.8451 177.555 48.8043 177.468 48.7176C177.381 48.6309 177.34 48.5288 177.34 48.4013ZM177.407 50.7071C177.407 50.4775 177.407 50.2633 177.397 50.0643C177.386 49.8654 177.376 49.6613 177.361 49.4624C177.412 49.4675 177.473 49.4777 177.545 49.4828C177.617 49.4879 177.693 49.493 177.78 49.493C177.954 49.493 178.097 49.4828 178.2 49.4624C178.179 49.6664 178.169 49.8654 178.164 50.0643C178.159 50.2633 178.154 50.4775 178.154 50.7071V50.9316C178.154 51.1611 178.154 51.3754 178.164 51.5794C178.169 51.7835 178.184 51.9773 178.2 52.161C178.154 52.1559 178.092 52.1508 178.016 52.1508H177.54C177.468 52.1508 177.407 52.1508 177.356 52.161C177.376 51.9722 177.386 51.7784 177.391 51.5794C177.397 51.3805 177.402 51.1611 177.402 50.9316V50.7071H177.407Z" fill="white"/>
<path d="M181.525 50.447C181.638 50.1205 181.745 49.794 181.853 49.4675C181.893 49.4726 181.934 49.4828 181.97 49.4879C182.006 49.493 182.047 49.4981 182.083 49.4981C182.119 49.4981 182.159 49.4981 182.195 49.4879C182.231 49.4828 182.272 49.4777 182.318 49.4675C182.257 49.6154 182.185 49.7838 182.098 49.9776C182.011 50.1715 181.919 50.3806 181.827 50.6102C181.73 50.8398 181.633 51.0846 181.535 51.3499C181.438 51.6152 181.341 51.8855 181.259 52.1661C181.208 52.161 181.157 52.1559 181.106 52.1559H180.804C180.753 52.1559 180.707 52.1559 180.65 52.1661C180.574 51.9518 180.492 51.7172 180.4 51.457C180.307 51.1968 180.215 50.9469 180.128 50.6969C180.041 50.4469 179.954 50.2174 179.873 49.998C179.796 49.7787 179.729 49.6052 179.678 49.4675C179.755 49.4726 179.832 49.4828 179.908 49.4879C179.98 49.493 180.052 49.4981 180.123 49.4981C180.195 49.4981 180.267 49.4981 180.333 49.4879C180.405 49.4828 180.471 49.4777 180.543 49.4675C180.645 49.7991 180.747 50.1256 180.85 50.447C180.952 50.7734 181.06 51.0999 181.167 51.4315H181.177C181.3 51.0999 181.413 50.7734 181.525 50.447Z" fill="white"/>
<path d="M184.641 50.1613C184.738 49.9011 184.856 49.7124 184.994 49.5899C185.132 49.4675 185.296 49.4063 185.49 49.4063C185.511 49.4063 185.526 49.4063 185.536 49.4063C185.551 49.4063 185.562 49.4063 185.577 49.4063C185.567 49.4624 185.557 49.5236 185.551 49.5848C185.546 49.646 185.541 49.7226 185.541 49.8093V50.0848C185.541 50.1205 185.541 50.1511 185.546 50.1817L185.495 50.2276C185.459 50.2072 185.413 50.1868 185.367 50.1715C185.321 50.1562 185.265 50.1511 185.209 50.1511C185.04 50.1511 184.907 50.2072 184.81 50.3143C184.712 50.4214 184.661 50.5541 184.661 50.702V50.9265C184.661 51.156 184.661 51.3703 184.671 51.5743C184.682 51.7784 184.692 51.9722 184.707 52.1559C184.661 52.1508 184.6 52.1457 184.523 52.1457H184.047C183.976 52.1457 183.914 52.1457 183.863 52.1559C183.884 51.9671 183.894 51.7733 183.899 51.5743C183.904 51.3754 183.909 51.156 183.909 50.9265V50.702C183.909 50.4725 183.909 50.2582 183.899 50.0592C183.889 49.8603 183.879 49.6562 183.863 49.4573C183.925 49.4624 183.991 49.4726 184.058 49.4777C184.124 49.4828 184.185 49.4879 184.252 49.4879C184.318 49.4879 184.38 49.4879 184.446 49.4777C184.513 49.4726 184.574 49.4675 184.641 49.4573L184.625 50.1409L184.636 50.1511L184.641 50.1613Z" fill="white"/>
<path d="M187.864 50.8245C187.864 50.9724 187.879 51.1152 187.91 51.2428C187.941 51.3754 187.987 51.4876 188.048 51.5846C188.109 51.6815 188.186 51.7529 188.283 51.809C188.381 51.8651 188.493 51.8906 188.616 51.8906C188.877 51.8906 189.107 51.8039 189.307 51.6356L189.373 51.6866L189.25 52.0029C189.158 52.0743 189.046 52.1304 188.913 52.1763C188.78 52.2171 188.611 52.2426 188.396 52.2426C188.212 52.2426 188.038 52.2171 187.874 52.1661C187.71 52.1151 187.562 52.0335 187.439 51.9161C187.311 51.7988 187.214 51.6509 187.142 51.4774C187.071 51.2989 187.035 51.0897 187.035 50.8398C187.035 50.5898 187.066 50.3857 187.132 50.2072C187.199 50.0286 187.291 49.8756 187.403 49.7583C187.521 49.641 187.659 49.5491 187.818 49.4879C187.976 49.4267 188.15 49.3961 188.34 49.3961C188.713 49.3961 188.994 49.5032 189.194 49.7226C189.394 49.9419 189.491 50.248 189.491 50.6408V50.7581C189.491 50.7938 189.491 50.8143 189.486 50.8245H187.869H187.864ZM188.728 50.5694C188.723 50.2888 188.688 50.0644 188.626 49.896C188.565 49.7277 188.462 49.6409 188.314 49.6409C188.232 49.6409 188.161 49.6716 188.104 49.7277C188.048 49.7838 188.002 49.8552 187.971 49.9419C187.935 50.0287 187.91 50.1307 187.895 50.2378C187.879 50.3449 187.869 50.4572 187.864 50.5643H188.728V50.5694Z" fill="white"/>
</g>
<defs>
<clipPath id="clip0_146_3056">
<rect width="191" height="72" fill="white"/>
</clipPath>
</defs>
</svg>
